<svg xmlns="http://www.w3.org/2000/svg" xmlns:xlink="http://www.w3.org/1999/xlink" width="40" height="40" version="1.1" viewBox="0 0 40 40"><title>all</title><desc>Created with Sketch.</desc><g id="Page-1" fill="none" fill-rule="evenodd" stroke="none" stroke-width="1"><g id="all" stroke="#FFF"><path id="Imported-Layers" d="M20.6511472,10.8208571 L24.1796956,10.8208571 L25.820003,10.8208571 C26.2498116,10.8208571 26.6015512,11.2065714 26.6015512,11.678 L26.6015512,29.9248571 C26.6015512,30.3962857 26.2154956,30.782 25.7436498,30.782 L11.8499368,30.782 C11.378091,30.782 10.9920354,30.3962857 10.9920354,29.9248571 L10.9920354,11.678 C10.9920354,11.2065714 11.3575014,10.8208571 11.8036101,10.8208571 L13.4739441,10.8208571 L16.9424394,10.8208571 L20.6511472,10.8208571 Z M16.9424394,10.8208571 L16.9424394,9.848 C16.9424394,8.834 17.7754617,8 18.8006539,8 C19.312821,8 19.773514,8.20914286 20.1038061,8.54685714 C20.4426771,8.87685714 20.6511472,9.33628571 20.6511472,9.848 L20.6511472,10.8208571 L16.9424394,10.8208571 Z M20.6511472,10.8208571 L25.037597,10.8208571 L25.037597,14.8734286 L12.6160427,14.8734286 L12.6160427,10.8208571 L16.9424394,10.8208571 L20.6511472,10.8208571 Z M15.5517813,10.8208571 L17.3705322,10.8208571 L15.5517813,10.8208571 Z M20.2342071,10.8208571 L22.052958,10.8208571 L20.2342071,10.8208571 Z M19.495554,10.1077143 C19.495554,10.4934286 19.18242,10.8071429 18.7963643,10.8071429 C18.4111666,10.8071429 18.0980326,10.4934286 18.0980326,10.1077143 C18.0980326,9.72114286 18.4111666,9.40742857 18.7963643,9.40742857 C19.18242,9.40742857 19.495554,9.72114286 19.495554,10.1077143 L19.495554,10.1077143 Z M12.6160427,17.1131429 L25.037597,17.1131429 L12.6160427,17.1131429 Z M12.6203322,19.2825714 L16.4611568,19.2825714 L12.6203322,19.2825714 Z M12.6203322,21.7777143 L25.037597,21.7777143 L12.6203322,21.7777143 Z M12.6203322,23.8382857 L25.037597,23.8382857 L12.6203322,23.8382857 Z M12.6160427,28.2251429 L25.0350233,28.2251429 L12.6160427,28.2251429 Z"/></g></g></svg>