<svg xmlns="http://www.w3.org/2000/svg" xmlns:xlink="http://www.w3.org/1999/xlink" width="40" height="40" version="1.1" viewBox="0 0 40 40"><title>design</title><desc>Created with Sketch.</desc><g id="Page-1" fill="none" fill-rule="evenodd" stroke="none" stroke-width="1"><g id="design"><g id="Imported-Layers" transform="translate(19.998123, 19.998123) rotate(45.000000) translate(-19.998123, -19.998123) translate(16.998123, 6.498123)"><path id="Stroke-1" stroke="#FFF" d="M0.472167478,21.8505 L2.99890155,26.61975 L5.76885066,21.8505 M1.02240398,22.7175 L1.99000951,21.75075 L2.77970774,22.5405 M3.35621748,22.527 L4.1316531,21.75225 L5.06547876,22.68525"/><path id="Fill-2" fill="#FFF" d="M3.04168938,23.3505 L2.49445553,22.78725 L3.04394137,22.25625 L3.58892323,22.82025 L3.04168938,23.3505"/><path id="Fill-3" fill="#FFF" d="M3.04168938,23.3505 L2.49445553,22.78725 L3.04394137,22.25625 L3.58892323,22.82025 L3.04168938,23.3505"/><path id="Fill-4" fill="#FFF" d="M3.36522544,23.0205 L2.8592781,22.4655 L3.42377721,21.9525 L3.92897389,22.509 L3.36522544,23.0205"/><path id="Stroke-5" stroke="#FFF" d="M5.71255088,3.17325 L5.71255088,5.23575 L0.497690044,5.23575 L0.497690044,3.17325 C0.497690044,1.5465 1.66647345,0.23325 3.10174248,0.23325 C3.82313031,0.23325 4.47770907,0.56325 4.94612323,1.09575 C5.42354535,1.62825 5.71255088,2.36325 5.71255088,3.17325 L5.71255088,3.17325 Z M0.565249779,6.73275 L5.38225885,6.73275 L0.565249779,6.73275 Z M0.627554867,8.17125 L5.44456394,8.17125 L0.627554867,8.17125 Z M1.90218186,24.44025 L4.14291305,24.44025 L1.90218186,24.44025 Z M0.507448673,22.026 L0.507448673,4.73325 L0.507448673,22.026 Z M5.72155885,22.06125 L5.72155885,5.5455 L5.72155885,22.06125 Z"/></g></g></g></svg>