<svg xmlns="http://www.w3.org/2000/svg" xmlns:xlink="http://www.w3.org/1999/xlink" width="40" height="40" version="1.1" viewBox="0 0 40 40"><title>strategy</title><desc>Created with Sketch.</desc><g id="Page-1" fill="none" fill-rule="evenodd" stroke="none" stroke-width="1"><g id="strategy"><g id="Imported-Layers" transform="translate(9.490708, 9.125000)"><path id="Stroke-1" stroke="#FFF" d="M13.0915752,10.527 C13.0915752,11.81475 12.0436487,12.86175 10.7547591,12.86175 C9.46662013,12.86175 8.41794292,11.81475 8.41794292,10.527 C8.41794292,10.41525 8.42469889,10.30875 8.44196416,10.2045 C8.44872013,10.14375 8.45998009,10.092 8.47124004,10.03875 C8.60711018,9.3975 9.00721394,8.856 9.54919314,8.53425 C9.90050376,8.316 10.3126181,8.19225 10.7547591,8.19225 C11.877752,8.19225 12.813079,8.9865 13.0367768,10.03875 C13.072058,10.1985 13.0915752,10.36275 13.0915752,10.527 L13.0915752,10.527 Z M16.0702088,10.527 C16.0702088,13.45725 13.6883529,15.83775 10.7540084,15.83775 C7.82116527,15.83775 5.43780796,13.45725 5.43780796,10.527 C5.43780796,10.272 5.45056925,10.032 5.49260642,9.7905 C5.50611836,9.65775 5.53389292,9.53625 5.55791416,9.41475 C5.86568628,7.95825 6.77624137,6.7245 8.00883119,5.99025 C8.81204137,5.49525 9.74886969,5.21475 10.7540084,5.21475 C13.3115197,5.21475 15.440402,7.0215 15.9478507,9.41475 C16.0281717,9.77775 16.0702088,10.15125 16.0702088,10.527 L16.0702088,10.527 Z M18.3890091,10.527 C18.3890091,14.73525 14.9682345,18.1545 10.7525071,18.1545 C6.54128363,18.1545 3.12050907,14.73525 3.12050907,10.527 C3.12050907,10.16325 3.13777434,9.81675 3.19707677,9.471 C3.21809535,9.2775 3.25863119,9.10425 3.29241106,8.92875 C3.73605332,6.83925 5.04220819,5.06775 6.81227323,4.014 C7.96604336,3.3015 9.31198341,2.8995 10.7525071,2.8995 C14.4262553,2.8995 17.4837086,5.49375 18.2126031,8.92875 C18.3274546,9.45225 18.3890091,9.9885 18.3890091,10.527 L18.3890091,10.527 Z M20.8339208,10.52625 C20.8339208,16.08375 16.3186785,20.59725 10.7525071,20.59725 C5.19159027,20.59725 0.674096018,16.08375 0.674096018,10.52625 C0.674096018,10.04625 0.69886792,9.58875 0.776186283,9.132 C0.802459513,8.87625 0.858008628,8.64675 0.902297788,8.4165 C1.48631416,5.65725 3.21133938,3.318 5.54965686,1.926 C7.0735042,0.9855 8.85032522,0.45525 10.7525071,0.45525 C15.6017947,0.45525 19.6381135,3.88125 20.6019657,8.4165 C20.7543504,9.108 20.8339208,9.81675 20.8339208,10.52625 L20.8339208,10.52625 Z"/><path id="Fill-2" fill="#FFF" d="M4.75770664,18.6315 L3.41101593,21.0495"/><path id="Stroke-3" stroke="#FFF" d="M4.75770664,18.6315 L3.41101593,21.0495"/><path id="Fill-4" fill="#FFF" d="M16.7435542,18.70125 L18.0902449,21.11925"/><path id="Stroke-5" stroke="#FFF" d="M16.7435542,18.70125 L18.0902449,21.11925"/></g></g></g></svg>