<svg xmlns="http://www.w3.org/2000/svg" xmlns:xlink="http://www.w3.org/1999/xlink" width="40" height="40" version="1.1" viewBox="0 0 40 40"><title>tag</title><desc>Created with Sketch.</desc><g id="Page-1" fill="none" fill-rule="evenodd" stroke="none" stroke-width="1"><g id="tag" stroke="#393939"><path id="Rectangle-49" d="M12.9938053,28.9565656 C12.9938053,27.2531315 12.9938053,17.2060724 12.9938053,16.081319 C12.9938053,14.9565656 13.7450434,14.2767072 14.1164519,13.9117996 C15.5955103,12.4586304 18.0874029,10.0103552 18.0874029,10.0103552 C18.0874029,10.0103552 18.999115,8.95841015 20,8.95656566 C21.000885,8.95472118 22.0177135,9.99919801 22.0177135,9.99919801 L25.9761492,14.0139019 C25.9761492,14.0139019 27.0061947,15.0147955 27.0061947,15.9565656 L27.0061947,28.9565666 C27.0061947,31.0434368 25.0044248,31.0434368 25.0044248,31.0434368 L14.9955752,31.0434368 C14.9955752,31.0434368 12.9938053,31.0434368 12.9938053,28.9565656 L12.9938053,28.9565656 Z M20,16.0434367 C21.105547,16.0434367 22.0017699,15.1480062 22.0017699,14.0434367 C22.0017699,12.9388672 21.105547,12.0434367 20,12.0434367 C18.894453,12.0434367 17.9982301,12.9388672 17.9982301,14.0434367 C17.9982301,15.1480062 18.894453,16.0434367 20,16.0434367 L20,16.0434367 Z" transform="translate(20.000000, 20.000000) rotate(-45.000000) translate(-20.000000, -20.000000)"/></g></g></svg>