<svg xmlns="http://www.w3.org/2000/svg" xmlns:xlink="http://www.w3.org/1999/xlink" width="180" height="50" version="1.1" viewBox="0 0 180 50"><title>Artboard 23</title><desc>Created with Sketch.</desc><g id="Page-1" fill="none" fill-rule="evenodd" stroke="none" stroke-width="1"><g id="Artboard-23"><g id="Group-Copy" transform="translate(15.000000, 8.459001)"><path id="®-2" fill="#393939" d="M148.831581,11.7478183 L148.345834,11.0446328 C148.562451,10.9680482 148.680606,10.7591813 148.680606,10.5503143 C148.680606,10.1952404 148.477117,10.0420713 147.873216,10.0420713 L147.538444,10.0420713 L147.538444,11.7478183 L147.853523,11.7478183 L147.853523,11.0585573 L147.965114,11.0585573 L148.450861,11.7478183 L148.831581,11.7478183 Z M148.352399,10.5572765 C148.352399,10.7939924 148.142346,10.8079169 147.853523,10.8079169 L147.853523,10.3135984 C148.221116,10.3135984 148.352399,10.3414473 148.352399,10.5572765 L148.352399,10.5572765 Z M146.606335,10.8775392 C146.606335,11.7547805 147.275878,12.4649283 148.102961,12.4649283 C148.930044,12.4649283 149.599587,11.7547805 149.599587,10.8775392 C149.599587,10.0002979 148.930044,9.29015016 148.102961,9.29015016 C147.275878,9.29015016 146.606335,10.0002979 146.606335,10.8775392 L146.606335,10.8775392 Z M146.934542,10.8775392 C146.934542,10.1952404 147.459674,9.63129956 148.102961,9.63129956 C148.746247,9.63129956 149.271379,10.1952404 149.271379,10.8775392 C149.271379,11.559838 148.746247,12.1237789 148.102961,12.1237789 C147.459674,12.1237789 146.934542,11.559838 146.934542,10.8775392 L146.934542,10.8775392 Z"/><path id="™-4" fill="#393939" d="M34.1149389,5.01471273 L34.1149389,4.75836959 L33.0316742,4.75836959 L33.0316742,5.01471273 L33.450593,5.01471273 L33.450593,6.57108182 L33.7002516,6.57108182 L33.7002516,5.01471273 L34.1149389,5.01471273 Z M36.1714492,5.03302296 L36.1714492,6.57108182 L36.4253394,6.57108182 L36.4253394,4.75836959 L36.0021891,4.75836959 L35.4393992,6.31473867 L34.8808409,4.75836959 L34.4619221,4.75836959 L34.4619221,6.57108182 L34.7158123,6.57108182 L34.7158123,5.04675563 L35.2828336,6.57108182 L35.5959648,6.57108182 L36.1714492,5.03302296 Z"/><g id="Group"><path id="Fill-1" fill="#F16521" d="M31.9479167,32.9320098 L20.5040064,32.9320098 C20.3096955,32.9320098 20.1498397,32.7709101 20.1498397,32.5759794 L20.146234,14.4732011 C20.146234,14.394665 20.2411859,14.3862072 20.2528045,14.4655488 L21.1782853,20.6268086 C21.4979968,22.713453 23.0432692,25.3679741 24.697516,26.6708683 L32.0989583,32.4926103 C32.4046474,32.7334544 32.3369391,32.9320098 31.9479167,32.9320098"/><path id="Fill-2" fill="#F16521" d="M18.1634615,14.4655488 L17.2363782,20.6268086 C16.9190705,22.713453 15.3733974,25.3679741 13.7191506,26.6708683 L6.31770833,32.4926103 C6.01041667,32.7334544 6.07852564,32.9320098 6.46794872,32.9320098 L17.911859,32.9320098 C18.1053686,32.9320098 18.2660256,32.7709101 18.2660256,32.5759794 L18.2696314,14.4732011 C18.2696314,14.394665 18.1742788,14.3862072 18.1634615,14.4655488"/><path id="Fill-3" fill="#FFDD2E" d="M38.2103365,21.9015103 L25.4639423,0.587611319 C25.3729968,0.433761063 25.1514423,0.30931151 24.9731571,0.30931151 L13.5208333,0.30931151 C13.3441506,0.30931151 13.1245994,0.43537206 13.0324519,0.588014069 L0.301282051,21.8974828 C0.106971154,22.2237098 0.242387821,22.3948783 0.602163462,22.2792892 L11.0777244,18.9006248 C11.9403045,18.6227278 12.9659455,17.6287423 13.2720353,16.7733027 L17.5697115,4.79473116 C17.6358173,4.6106747 17.8485577,4.45924094 18.0440705,4.45924094 L20.385016,4.45924094 C20.5793269,4.45924094 20.7940705,4.6106747 20.8589744,4.79473116 L25.1554487,16.7733027 C25.463141,17.6287423 26.4871795,18.620714 27.349359,18.8974028 L37.9094551,22.284525 C38.2700321,22.3997113 38.4054487,22.2269318 38.2103365,21.9015103"/><path id="Fill-4" fill="#FAAB18" d="M15.3838141,20.3408565 L16.2972756,14.2722291 C16.3084936,14.1880545 16.1987179,14.1389191 16.1634615,14.2392037 L15.036859,17.4116604 C14.5376603,18.8019512 13.0500801,20.2445994 11.6522436,20.6956787 L0.703525641,24.2241659 C0.497996795,24.291425 0.423477564,24.495619 0.540464744,24.6796754 L4.53125,31.0044514 C4.64903846,31.1881051 4.88341346,31.22838 5.05208333,31.0938618 L12.5645032,25.1859314 C13.8453526,24.1782525 15.1382212,21.958298 15.3838141,20.3408565"/><path id="Fill-5" fill="#FAAB18" d="M37.7123397,24.2241659 L26.7644231,20.6956787 C25.3645833,20.2445994 23.8782051,18.8019512 23.3798077,17.4116604 L22.2536058,14.2392037 C22.2175481,14.1389191 22.1073718,14.1880545 22.1205929,14.2722291 L23.0324519,20.3408565 C23.2784455,21.958298 24.5705128,24.1782525 25.8521635,25.1859314 L33.3637821,31.0938618 C33.5332532,31.22838 33.7684295,31.1881051 33.8838141,31.0044514 L37.8758013,24.6796754 C37.9919872,24.495619 37.9178686,24.291425 37.7123397,24.2241659"/></g><g id="Group" fill="#393939" transform="translate(44.570136, 8.610383)"><path id="Fill-6" d="M0.0874124054,5.69165272 L0.0874124054,3.61260363 C0.0874124054,1.69313914 1.7052777,0.0886910654 3.6889801,0.0886910654 L10.9191927,0.0886910654 L10.9191927,2.92977142 L4.39387138,2.92977142 C3.50650302,2.92977142 3.06414327,3.63959656 3.06414327,4.5066333 L3.06414327,4.82372611 C3.06414327,5.69165272 3.50650302,6.40118124 4.39387138,6.40118124 L8.1787991,6.40118124 C10.2931786,6.40118124 11.9890382,8.08512498 11.9890382,10.1626909 L11.9890382,12.3716621 C11.9890382,14.4498213 10.2931786,16.1064755 8.1787991,16.1064755 L0.505638089,16.1064755 L0.505638089,13.2656917 L7.60399632,13.2656917 C8.54463621,13.2656917 9.01348456,12.213264 9.01348456,11.2937245 L9.01348456,11.1890156 C9.01348456,10.2412967 8.54463621,9.21615854 7.60399632,9.24285485 L3.6889801,9.24285485 C1.7052777,9.24285485 0.0874124054,7.61022734 0.0874124054,5.69165272"/><path id="Fill-7" d="M13.5030092,0.0886910654 L16.5056401,0.0886910654 L16.5056401,16.1064755 L13.5030092,16.1064755 L13.5030092,0.0886910654 Z M20.1578305,7.37529984 C20.0792476,7.48030531 20.0539363,7.58471754 20.0539363,7.71641932 C20.0539363,7.82231467 20.0792476,7.89973396 20.1325191,7.97893301 L25.7433949,16.1064755 L22.1927442,16.1064755 L17.052777,8.6371453 C16.8164398,8.39984479 16.6878228,8.05842868 16.6878228,7.71641932 C16.6878228,7.37529984 16.8164398,7.08490334 16.9736055,6.82238965 L21.5670244,0.0886910654 L25.1164978,0.0886910654 L20.1578305,7.37529984 L20.1578305,7.37529984 Z"/><path id="Fill-8" d="M34.3304128,0.0886910654 C36.8344692,0.0886910654 38.8452489,2.11345766 38.8452489,4.63952159 L38.8452489,11.0834169 C38.8452489,13.8714013 36.6266808,16.1064755 33.8589156,16.1064755 L30.4928022,16.1064755 C27.7006087,16.1064755 25.4832179,13.8714013 25.4832179,11.0834169 L25.4832179,4.63952159 C25.4832179,2.11345766 27.5175429,0.0886910654 29.9977596,0.0886910654 L34.3304128,0.0886910654 L34.3304128,0.0886910654 Z M35.8688123,5.29654737 C35.8688123,3.98190255 34.7477556,2.90277848 33.3656389,2.90277848 L30.9637108,2.90277848 C29.5807112,2.90277848 28.4840828,3.98190255 28.4840828,5.29654737 L28.4840828,10.5566098 C28.4840828,12.0569423 29.6854883,13.292388 31.2506707,13.292388 L33.103696,13.292388 C34.6429784,13.292388 35.8688123,12.0569423 35.8688123,10.5566098 L35.8688123,5.29654737 L35.8688123,5.29654737 Z"/><path id="Fill-9" d="M49.6764406,0.0886910654 C52.1816742,0.0886910654 54.1909823,2.11345766 54.1909823,4.63952159 L54.1909823,11.0834169 C54.1909823,13.8714013 51.9727085,16.1064755 49.205532,16.1064755 L45.8405958,16.1064755 C43.0475193,16.1064755 40.8292456,13.8714013 40.8292456,11.0834169 L40.8292456,4.63952159 C40.8292456,2.11345766 42.8641593,0.0886910654 45.3440816,0.0886910654 L49.6764406,0.0886910654 L49.6764406,0.0886910654 Z M51.215723,5.29654737 C51.215723,3.98190255 50.0929003,2.90277848 48.7104893,2.90277848 L46.3088556,2.90277848 C44.9264446,2.90277848 43.8301105,3.98190255 43.8301105,5.29654737 L43.8301105,10.5566098 C43.8301105,12.0569423 45.0309274,13.292388 46.5966984,13.292388 L48.4497237,13.292388 C49.9890061,13.292388 51.215723,12.0569423 51.215723,10.5566098 L51.215723,5.29654737 L51.215723,5.29654737 Z"/><path id="Fill-10" d="M56.2797561,0.0886910654 L59.2809154,0.0886910654 L59.2809154,16.1064755 L56.2797561,16.1064755 L56.2797561,0.0886910654 Z M62.9354603,7.37529984 C62.8568774,7.48030531 62.8306831,7.58471754 62.8306831,7.71641932 C62.8306831,7.82231467 62.8568774,7.89973396 62.9083831,7.97893301 L68.5192588,16.1064755 L64.9709626,16.1064755 L59.8295239,8.6371453 C59.5949525,8.39984479 59.4630981,8.05842868 59.4630981,7.71641932 C59.4630981,7.37529984 59.5949525,7.08490334 59.7503524,6.82238965 L64.3446542,0.0886910654 L67.8932447,0.0886910654 L62.9354603,7.37529984 L62.9354603,7.37529984 Z"/><path id="Fill-11" d="M78.3038562,0.0886910654 L81.3058984,0.0886910654 L81.3058984,11.5028456 C81.3058984,14.0295027 79.2701017,16.1064755 76.7639851,16.1064755 L73.6857146,16.1064755 C71.2052036,16.1064755 69.1699956,14.0295027 69.1699956,11.5028456 L69.1699956,0.0886910654 L72.1446662,0.0886910654 L72.1446662,11.0567206 C72.1446662,12.2402569 73.2159833,13.2656917 74.4680115,13.2656917 L76.0072939,13.2656917 C77.260205,13.2656917 78.3038562,12.2402569 78.3038562,11.0567206 L78.3038562,0.0886910654"/><path id="Fill-12" d="M88.4572338,13.292388 L86.4211428,3.29818046 L86.3958315,3.13978237 C86.3684599,3.00897046 86.2910543,2.90277848 86.1353602,2.90277848 C86.0561887,2.90277848 85.8999059,3.00897046 85.8999059,3.29818046 L85.8999059,16.1064755 L82.923175,16.1064755 L82.923175,2.90277848 C83.0812237,1.37752946 84.1507748,0.0886910654 85.5864574,0.0886910654 L86.73518,0.0886910654 C88.3006567,0.0886910654 89.0043707,1.32561997 89.2936852,2.90277848 L91.0678333,12.6884582 C91.0678333,12.8981726 91.1967445,12.977075 91.2753274,12.977075 C91.3533216,12.977075 91.4580987,12.8981726 91.484293,12.6884582 L93.2593241,2.90277848 C93.5465783,1.32561997 94.2761923,0.0886910654 95.8175349,0.0886910654 L96.964786,0.0886910654 C98.3992912,0.0886910654 99.4706083,1.37752946 99.6271854,2.90277848 L99.6271854,16.1064755 L96.6254375,16.1064755 L96.6254375,3.29818046 C96.6254375,3.00897046 96.4688604,2.90277848 96.3911605,2.90277848 C96.2869719,2.90277848 96.1562948,3.00897046 96.1301005,3.13978237 L96.1036119,3.29818046 L94.0686982,13.292388 C93.7552497,14.8698432 93.3897069,16.1064755 91.8498358,16.1064755 L90.6755075,16.1064755 C89.1362251,16.1064755 88.7441937,14.7921273 88.4572338,13.292388"/></g></g></g></g></svg>