<?xml version="1.0" encoding="UTF-8" standalone="no"?>
<svg width="180px" height="50px" viewBox="0 0 180 50" version="1.1" xmlns="http://www.w3.org/2000/svg" xmlns:xlink="http://www.w3.org/1999/xlink" xmlns:sketch="http://www.bohemiancoding.com/sketch/ns">
    <!-- Generator: Sketch 3.3.2 (12043) - http://www.bohemiancoding.com/sketch -->
    <title>Artboard 23 Copy</title>
    <desc>Created with Sketch.</desc>
    <defs></defs>
    <g id="Page-1" stroke="none" stroke-width="1" fill="none" fill-rule="evenodd" sketch:type="MSPage">
        <g id="Artboard-23-Copy" sketch:type="MSArtboardGroup" fill="#393939">
            <g id="Group-Copy" sketch:type="MSLayerGroup" transform="translate(37.000000, 16.500000)">
                <path d="M104.831581,3.7478183 L104.345834,3.0446328 C104.562451,2.96804824 104.680606,2.75918126 104.680606,2.55031428 C104.680606,2.19524041 104.477117,2.04207129 103.873216,2.04207129 L103.538444,2.04207129 L103.538444,3.7478183 L103.853523,3.7478183 L103.853523,3.05855726 L103.965114,3.05855726 L104.450861,3.7478183 L104.831581,3.7478183 Z M104.352399,2.55727651 C104.352399,2.79399242 104.142346,2.80791689 103.853523,2.80791689 L103.853523,2.31359836 C104.221116,2.31359836 104.352399,2.34144729 104.352399,2.55727651 L104.352399,2.55727651 Z M102.606335,2.87753921 C102.606335,3.75478053 103.275878,4.46492827 104.102961,4.46492827 C104.930044,4.46492827 105.599587,3.75478053 105.599587,2.87753921 C105.599587,2.00029789 104.930044,1.29015016 104.102961,1.29015016 C103.275878,1.29015016 102.606335,2.00029789 102.606335,2.87753921 L102.606335,2.87753921 Z M102.934542,2.87753921 C102.934542,2.19524041 103.459674,1.63129956 104.102961,1.63129956 C104.746247,1.63129956 105.271379,2.19524041 105.271379,2.87753921 C105.271379,3.55983802 104.746247,4.12377887 104.102961,4.12377887 C103.459674,4.12377887 102.934542,3.55983802 102.934542,2.87753921 L102.934542,2.87753921 Z" id="®-2" sketch:type="MSShapeGroup"></path>
                <g id="Group" transform="translate(0.570136, 0.610383)" sketch:type="MSShapeGroup">
                    <path d="M0.0874124054,5.69165272 L0.0874124054,3.61260363 C0.0874124054,1.69313914 1.7052777,0.0886910654 3.6889801,0.0886910654 L10.9191927,0.0886910654 L10.9191927,2.92977142 L4.39387138,2.92977142 C3.50650302,2.92977142 3.06414327,3.63959656 3.06414327,4.5066333 L3.06414327,4.82372611 C3.06414327,5.69165272 3.50650302,6.40118124 4.39387138,6.40118124 L8.1787991,6.40118124 C10.2931786,6.40118124 11.9890382,8.08512498 11.9890382,10.1626909 L11.9890382,12.3716621 C11.9890382,14.4498213 10.2931786,16.1064755 8.1787991,16.1064755 L0.505638089,16.1064755 L0.505638089,13.2656917 L7.60399632,13.2656917 C8.54463621,13.2656917 9.01348456,12.213264 9.01348456,11.2937245 L9.01348456,11.1890156 C9.01348456,10.2412967 8.54463621,9.21615854 7.60399632,9.24285485 L3.6889801,9.24285485 C1.7052777,9.24285485 0.0874124054,7.61022734 0.0874124054,5.69165272" id="Fill-6"></path>
                    <path d="M13.5030092,0.0886910654 L16.5056401,0.0886910654 L16.5056401,16.1064755 L13.5030092,16.1064755 L13.5030092,0.0886910654 Z M20.1578305,7.37529984 C20.0792476,7.48030531 20.0539363,7.58471754 20.0539363,7.71641932 C20.0539363,7.82231467 20.0792476,7.89973396 20.1325191,7.97893301 L25.7433949,16.1064755 L22.1927442,16.1064755 L17.052777,8.6371453 C16.8164398,8.39984479 16.6878228,8.05842868 16.6878228,7.71641932 C16.6878228,7.37529984 16.8164398,7.08490334 16.9736055,6.82238965 L21.5670244,0.0886910654 L25.1164978,0.0886910654 L20.1578305,7.37529984 L20.1578305,7.37529984 Z" id="Fill-7"></path>
                    <path d="M34.3304128,0.0886910654 C36.8344692,0.0886910654 38.8452489,2.11345766 38.8452489,4.63952159 L38.8452489,11.0834169 C38.8452489,13.8714013 36.6266808,16.1064755 33.8589156,16.1064755 L30.4928022,16.1064755 C27.7006087,16.1064755 25.4832179,13.8714013 25.4832179,11.0834169 L25.4832179,4.63952159 C25.4832179,2.11345766 27.5175429,0.0886910654 29.9977596,0.0886910654 L34.3304128,0.0886910654 L34.3304128,0.0886910654 Z M35.8688123,5.29654737 C35.8688123,3.98190255 34.7477556,2.90277848 33.3656389,2.90277848 L30.9637108,2.90277848 C29.5807112,2.90277848 28.4840828,3.98190255 28.4840828,5.29654737 L28.4840828,10.5566098 C28.4840828,12.0569423 29.6854883,13.292388 31.2506707,13.292388 L33.103696,13.292388 C34.6429784,13.292388 35.8688123,12.0569423 35.8688123,10.5566098 L35.8688123,5.29654737 L35.8688123,5.29654737 Z" id="Fill-8"></path>
                    <path d="M49.6764406,0.0886910654 C52.1816742,0.0886910654 54.1909823,2.11345766 54.1909823,4.63952159 L54.1909823,11.0834169 C54.1909823,13.8714013 51.9727085,16.1064755 49.205532,16.1064755 L45.8405958,16.1064755 C43.0475193,16.1064755 40.8292456,13.8714013 40.8292456,11.0834169 L40.8292456,4.63952159 C40.8292456,2.11345766 42.8641593,0.0886910654 45.3440816,0.0886910654 L49.6764406,0.0886910654 L49.6764406,0.0886910654 Z M51.215723,5.29654737 C51.215723,3.98190255 50.0929003,2.90277848 48.7104893,2.90277848 L46.3088556,2.90277848 C44.9264446,2.90277848 43.8301105,3.98190255 43.8301105,5.29654737 L43.8301105,10.5566098 C43.8301105,12.0569423 45.0309274,13.292388 46.5966984,13.292388 L48.4497237,13.292388 C49.9890061,13.292388 51.215723,12.0569423 51.215723,10.5566098 L51.215723,5.29654737 L51.215723,5.29654737 Z" id="Fill-9"></path>
                    <path d="M56.2797561,0.0886910654 L59.2809154,0.0886910654 L59.2809154,16.1064755 L56.2797561,16.1064755 L56.2797561,0.0886910654 Z M62.9354603,7.37529984 C62.8568774,7.48030531 62.8306831,7.58471754 62.8306831,7.71641932 C62.8306831,7.82231467 62.8568774,7.89973396 62.9083831,7.97893301 L68.5192588,16.1064755 L64.9709626,16.1064755 L59.8295239,8.6371453 C59.5949525,8.39984479 59.4630981,8.05842868 59.4630981,7.71641932 C59.4630981,7.37529984 59.5949525,7.08490334 59.7503524,6.82238965 L64.3446542,0.0886910654 L67.8932447,0.0886910654 L62.9354603,7.37529984 L62.9354603,7.37529984 Z" id="Fill-10"></path>
                    <path d="M78.3038562,0.0886910654 L81.3058984,0.0886910654 L81.3058984,11.5028456 C81.3058984,14.0295027 79.2701017,16.1064755 76.7639851,16.1064755 L73.6857146,16.1064755 C71.2052036,16.1064755 69.1699956,14.0295027 69.1699956,11.5028456 L69.1699956,0.0886910654 L72.1446662,0.0886910654 L72.1446662,11.0567206 C72.1446662,12.2402569 73.2159833,13.2656917 74.4680115,13.2656917 L76.0072939,13.2656917 C77.260205,13.2656917 78.3038562,12.2402569 78.3038562,11.0567206 L78.3038562,0.0886910654" id="Fill-11"></path>
                    <path d="M88.4572338,13.292388 L86.4211428,3.29818046 L86.3958315,3.13978237 C86.3684599,3.00897046 86.2910543,2.90277848 86.1353602,2.90277848 C86.0561887,2.90277848 85.8999059,3.00897046 85.8999059,3.29818046 L85.8999059,16.1064755 L82.923175,16.1064755 L82.923175,2.90277848 C83.0812237,1.37752946 84.1507748,0.0886910654 85.5864574,0.0886910654 L86.73518,0.0886910654 C88.3006567,0.0886910654 89.0043707,1.32561997 89.2936852,2.90277848 L91.0678333,12.6884582 C91.0678333,12.8981726 91.1967445,12.977075 91.2753274,12.977075 C91.3533216,12.977075 91.4580987,12.8981726 91.484293,12.6884582 L93.2593241,2.90277848 C93.5465783,1.32561997 94.2761923,0.0886910654 95.8175349,0.0886910654 L96.964786,0.0886910654 C98.3992912,0.0886910654 99.4706083,1.37752946 99.6271854,2.90277848 L99.6271854,16.1064755 L96.6254375,16.1064755 L96.6254375,3.29818046 C96.6254375,3.00897046 96.4688604,2.90277848 96.3911605,2.90277848 C96.2869719,2.90277848 96.1562948,3.00897046 96.1301005,3.13978237 L96.1036119,3.29818046 L94.0686982,13.292388 C93.7552497,14.8698432 93.3897069,16.1064755 91.8498358,16.1064755 L90.6755075,16.1064755 C89.1362251,16.1064755 88.7441937,14.7921273 88.4572338,13.292388" id="Fill-12"></path>
                </g>
            </g>
        </g>
    </g>
</svg>