<?xml version="1.0" encoding="UTF-8" standalone="no"?>
<svg width="24px" height="24px" viewBox="0 0 24 24" version="1.1" xmlns="http://www.w3.org/2000/svg" xmlns:xlink="http://www.w3.org/1999/xlink" xmlns:sketch="http://www.bohemiancoding.com/sketch/ns">
    <!-- Generator: Sketch 3.2.2 (9983) - http://www.bohemiancoding.com/sketch -->
    <title>Artboard 7</title>
    <desc>Created with Sketch.</desc>
    <defs></defs>
    <g id="Page-1" stroke="none" stroke-width="1" fill="none" fill-rule="evenodd" sketch:type="MSPage">
        <g id="Artboard-7" sketch:type="MSArtboardGroup" fill="#000000">
            <g id="Action" sketch:type="MSLayerGroup" transform="translate(10.000000, 4.000000)">
                <path d="M2,12 C0.896,12 0,12.896 0,14 C0,15.105 0.896,16 2,16 C3.105,16 4,15.105 4,14 C4,12.896 3.105,12 2,12 M2,6 C0.896,6 0,6.896 0,8 C0,9.105 0.896,10 2,10 C3.105,10 4,9.105 4,8 C4,6.896 3.105,6 2,6 M2,4 C3.105,4 4,3.105 4,2 C4,0.896 3.105,0 2,0 C0.896,0 0,0.896 0,2 C0,3.105 0.896,4 2,4" id="Shape" sketch:type="MSShapeGroup"></path>
            </g>
        </g>
    </g>
</svg>