<?xml version="1.0" encoding="UTF-8" standalone="no"?>
<svg width="24px" height="24px" viewBox="0 0 24 24" version="1.1" xmlns="http://www.w3.org/2000/svg" xmlns:xlink="http://www.w3.org/1999/xlink" xmlns:sketch="http://www.bohemiancoding.com/sketch/ns">
    <!-- Generator: Sketch 3.2.2 (9983) - http://www.bohemiancoding.com/sketch -->
    <title>search</title>
    <desc>Created with Sketch.</desc>
    <defs></defs>
    <g id="Page-1" stroke="none" stroke-width="1" fill="none" fill-rule="evenodd" sketch:type="MSPage">
        <g id="search" sketch:type="MSArtboardGroup" fill="#000000">
            <path d="M9.5,14 C7.015,14 5,11.985 5,9.5 C5,7.015 7.015,5 9.5,5 C11.985,5 14,7.015 14,9.5 C14,11.985 11.985,14 9.5,14 L9.5,14 Z M15.502,14 L14.708,14 L14.433,13.726 C15.408,12.589 16,11.115 16,9.5 C16,5.91 13.09,3 9.5,3 C5.91,3 3,5.91 3,9.5 C3,13.09 5.91,16 9.5,16 C11.115,16 12.588,15.408 13.725,14.433 L14.001,14.708 L14.001,15.5 L18.999,20.491 L20.49,19 L15.502,14 L15.502,14 Z" sketch:type="MSShapeGroup"></path>
        </g>
    </g>
</svg>