<?xml version="1.0" encoding="UTF-8" standalone="no"?>
<svg width="44px" height="38px" viewBox="0 0 44 38" version="1.1" xmlns="http://www.w3.org/2000/svg" xmlns:xlink="http://www.w3.org/1999/xlink">
    <!-- Generator: Sketch 3.6.1 (26313) - http://www.bohemiancoding.com/sketch -->
    <title>Logo</title>
    <desc>Created with Sketch.</desc>
    <defs></defs>
    <g id="Page-1" stroke="none" stroke-width="1" fill="none" fill-rule="evenodd">
        <path d="M36.3055,37.125 L23.2136667,37.125 C22.9918333,37.125 22.8089583,36.942125 22.8089583,36.7198333 L22.804375,16.1186667 C22.804375,16.02975 22.913,16.0196667 22.9262917,16.1099583 L23.9850417,23.1215417 C24.3507917,25.4961667 26.1185833,28.5175 28.0110417,29.99975 L36.4782917,36.6249583 C36.828,36.8995 36.7505417,37.125 36.3055,37.125 Z M20.5365417,16.1099583 L19.4755,23.1215417 C19.1125,25.4961667 17.34425,28.5175 15.4517917,29.99975 L6.98454167,36.6249583 C6.63345833,36.8995 6.711375,37.125 7.15641667,37.125 L20.2487083,37.125 C20.4700833,37.125 20.6534167,36.942125 20.6534167,36.7198333 L20.6575417,16.1186667 C20.6575417,16.02975 20.5484583,16.0196667 20.5365417,16.1099583 Z M43.4697083,24.572625 L28.8878333,0.316708333 C28.7837917,0.142083333 28.5307917,0 28.3268333,0 L15.2249167,0 C15.0227917,0 14.771625,0.143458333 14.6662083,0.317625 L0.10175,24.5675833 C-0.120541667,24.9392917 0.034375,25.133625 0.445958333,25.0020833 L12.43,21.157125 C13.4167917,20.8413333 14.590125,19.7097083 14.94075,18.7362083 L19.8572917,5.10491667 C19.9324583,4.895 20.1762917,4.723125 20.3995,4.723125 L23.078,4.723125 C23.2998333,4.723125 23.5455,4.895 23.6202083,5.10491667 L28.5349167,18.7362083 C28.8869167,19.7097083 30.0584167,20.8390417 31.04475,21.1534583 L43.1255,25.0080417 C43.538,25.1395833 43.693375,24.9425 43.4697083,24.572625 Z M17.356625,22.796125 L18.4011667,15.8899583 C18.4144583,15.7941667 18.2884167,15.73825 18.2485417,15.852375 L16.95925,19.4626667 C16.3881667,21.0448333 14.686375,22.6865833 13.08725,23.1999167 L0.561916667,27.2158333 C0.326791667,27.2919167 0.241541667,27.52475 0.375375,27.7342083 L4.94083333,34.931875 C5.07558333,35.1404167 5.34370833,35.18625 5.537125,35.033625 L14.130875,28.3103333 C15.5961667,27.1635833 17.0752083,24.6367917 17.356625,22.796125 Z M42.9004583,27.2158333 L30.3755833,23.1999167 C28.7741667,22.6865833 27.07375,21.0448333 26.5035833,19.4626667 L25.2152083,15.852375 C25.1739583,15.73825 25.0479167,15.7941667 25.0635,15.8899583 L26.1062083,22.796125 C26.387625,24.6367917 27.86575,27.1635833 29.3324167,28.3103333 L37.92525,35.033625 C38.119125,35.18625 38.3881667,35.1404167 38.5201667,34.931875 L43.087,27.7342083 C43.2199167,27.52475 43.135125,27.2919167 42.9004583,27.2158333 Z" id="Logo" fill="#FFFFFF"></path>
    </g>
</svg>