<svg xmlns="http://www.w3.org/2000/svg" xmlns:xlink="http://www.w3.org/1999/xlink" width="20" height="13" version="1.1" viewBox="0 0 20 13"><title>barbell</title><desc>Created with Sketch.</desc><g id="Page-1" fill="none" fill-rule="evenodd" stroke="none" stroke-width="1"><g id="barbell" fill="#FFF"><g id="Group-2"><path id="Combined-Shape" d="M7,5 L13,5 L13,8 L7,8 L7,5 Z M14,0.998502329 C14,0.44704472 14.4426603,0 14.9989566,0 L16.0010434,0 C16.5527519,0 17,0.447489426 17,0.998502329 L17,12.0014977 C17,12.5529553 16.5573397,13 16.0010434,13 L14.9989566,13 C14.4472481,13 14,12.5525106 14,12.0014977 L14,0.998502329 Z M3,0.998502329 C3,0.44704472 3.44266033,0 3.99895656,0 L5.00104344,0 C5.55275191,0 6,0.447489426 6,0.998502329 L6,12.0014977 C6,12.5529553 5.55733967,13 5.00104344,13 L3.99895656,13 C3.44724809,13 3,12.5525106 3,12.0014977 L3,0.998502329 Z M0,2.99754465 C0,2.44661595 0.443864822,2 1,2 C1.55228475,2 2,2.4463114 2,2.99754465 L2,10.0024554 C2,10.553384 1.55613518,11 1,11 C0.44771525,11 0,10.5536886 0,10.0024554 L0,2.99754465 Z M18,2.99754465 C18,2.44661595 18.4438648,2 19,2 C19.5522847,2 20,2.4463114 20,2.99754465 L20,10.0024554 C20,10.553384 19.5561352,11 19,11 C18.4477153,11 18,10.5536886 18,10.0024554 L18,2.99754465 Z"/></g></g></g></svg>