<?xml version="1.0" encoding="UTF-8" standalone="no"?>
<svg width="20px" height="22px" viewBox="0 0 20 22" version="1.1" xmlns="http://www.w3.org/2000/svg" xmlns:xlink="http://www.w3.org/1999/xlink">
    <!-- Generator: Sketch 3.8.3 (29802) - http://www.bohemiancoding.com/sketch -->
    <title>clipboard</title>
    <desc>Created with Sketch.</desc>
    <defs></defs>
    <g id="Page-1" stroke="none" stroke-width="1" fill="none" fill-rule="evenodd">
        <g id="clipboard" fill="#FFFFFF">
            <path d="M15,9 L15,7 L5,7 L5,9 L15,9 Z M15,13 L15,11 L5,11 L5,13 L15,13 Z M11.98,17 L11.98,15 L4.98000002,15 L4.98000002,17 L11.98,17 Z M10,3 C9.71428429,3 9.47619143,3.09302233 9.28571429,3.27906977 C9.09523714,3.46511721 9,3.69767302 9,3.97674419 C9,4.25581535 9.09523714,4.49612302 9.28571429,4.69767442 C9.47619143,4.89922581 9.71428429,5 10,5 C10.2857157,5 10.5238086,4.89922581 10.7142857,4.69767442 C10.9047629,4.49612302 11,4.25581535 11,3.97674419 C11,3.69767302 10.9047629,3.46511721 10.7142857,3.27906977 C10.5238086,3.09302233 10.2857157,3 10,3 L10,3 Z M16.984375,3.01405152 C17.5156277,3.01405152 17.984373,3.21701593 18.390625,3.62295082 C18.796877,4.02888571 19,4.49726511 19,5.02810304 L19,18.9859485 C19,19.5167864 18.796877,19.9851658 18.390625,20.3911007 C17.984373,20.7970356 17.5156277,21 16.984375,21 L3.015625,21 C2.48437234,21 2.01562703,20.7970356 1.609375,20.3911007 C1.20312297,19.9851658 1,19.5167864 1,18.9859485 L1,5.02810304 C1,4.49726511 1.20312297,4.02888571 1.609375,3.62295082 C2.01562703,3.21701593 2.48437234,3.01405152 3.015625,3.01405152 L7.1875,3.01405152 C7.40625109,2.42076206 7.7656225,1.93677002 8.265625,1.56206089 C8.7656275,1.18735176 9.34374672,1 10,1 C10.6562533,1 11.2343725,1.18735176 11.734375,1.56206089 C12.2343775,1.93677002 12.5937489,2.42076206 12.8125,3.01405152 L16.984375,3.01405152 Z" id="î¡"></path>
        </g>
    </g>
</svg>