<svg xmlns="http://www.w3.org/2000/svg" xmlns:xlink="http://www.w3.org/1999/xlink" width="18" height="20" version="1.1" viewBox="0 0 18 20"><title>clipboard</title><desc>Created with Sketch.</desc><g id="Page-1" fill="none" fill-rule="evenodd" stroke="none" stroke-width="1"><g id="clipboard" fill="#FFF"><path id="î¡" d="M14,8 L14,6 L4,6 L4,8 L14,8 Z M14,12 L14,10 L4,10 L4,12 L14,12 Z M10.98,16 L10.98,14 L3.98000002,14 L3.98000002,16 L10.98,16 Z M9,2 C8.71428429,2 8.47619143,2.09302233 8.28571429,2.27906977 C8.09523714,2.46511721 8,2.69767302 8,2.97674419 C8,3.25581535 8.09523714,3.49612302 8.28571429,3.69767442 C8.47619143,3.89922581 8.71428429,4 9,4 C9.28571571,4 9.52380857,3.89922581 9.71428571,3.69767442 C9.90476286,3.49612302 10,3.25581535 10,2.97674419 C10,2.69767302 9.90476286,2.46511721 9.71428571,2.27906977 C9.52380857,2.09302233 9.28571571,2 9,2 L9,2 Z M15.984375,2.01405152 C16.5156277,2.01405152 16.984373,2.21701593 17.390625,2.62295082 C17.796877,3.02888571 18,3.49726511 18,4.02810304 L18,17.9859485 C18,18.5167864 17.796877,18.9851658 17.390625,19.3911007 C16.984373,19.7970356 16.5156277,20 15.984375,20 L2.015625,20 C1.48437234,20 1.01562703,19.7970356 0.609375,19.3911007 C0.203122969,18.9851658 0,18.5167864 0,17.9859485 L0,4.02810304 C0,3.49726511 0.203122969,3.02888571 0.609375,2.62295082 C1.01562703,2.21701593 1.48437234,2.01405152 2.015625,2.01405152 L6.1875,2.01405152 C6.40625109,1.42076206 6.7656225,0.936770023 7.265625,0.56206089 C7.7656275,0.187351756 8.34374672,0 9,0 C9.65625328,0 10.2343725,0.187351756 10.734375,0.56206089 C11.2343775,0.936770023 11.5937489,1.42076206 11.8125,2.01405152 L15.984375,2.01405152 Z"/></g></g></svg>