<?xml version="1.0" encoding="UTF-8" standalone="no"?>
<svg width="24px" height="24px" viewBox="0 0 24 24" version="1.1" xmlns="http://www.w3.org/2000/svg" xmlns:xlink="http://www.w3.org/1999/xlink">
    <!-- Generator: Sketch 3.8.3 (29802) - http://www.bohemiancoding.com/sketch -->
    <title>clipboard</title>
    <desc>Created with Sketch.</desc>
    <defs></defs>
    <g id="Page-1" stroke="none" stroke-width="1" fill="none" fill-rule="evenodd">
        <g id="clipboard" fill="#FFFFFF">
            <path d="M17,10 L17,8 L7,8 L7,10 L17,10 Z M17,14 L17,12 L7,12 L7,14 L17,14 Z M13.98,18 L13.98,16 L6.98000002,16 L6.98000002,18 L13.98,18 Z M12,4 C11.7142843,4 11.4761914,4.09302233 11.2857143,4.27906977 C11.0952371,4.46511721 11,4.69767302 11,4.97674419 C11,5.25581535 11.0952371,5.49612302 11.2857143,5.69767442 C11.4761914,5.89922581 11.7142843,6 12,6 C12.2857157,6 12.5238086,5.89922581 12.7142857,5.69767442 C12.9047629,5.49612302 13,5.25581535 13,4.97674419 C13,4.69767302 12.9047629,4.46511721 12.7142857,4.27906977 C12.5238086,4.09302233 12.2857157,4 12,4 L12,4 Z M18.984375,4.01405152 C19.5156277,4.01405152 19.984373,4.21701593 20.390625,4.62295082 C20.796877,5.02888571 21,5.49726511 21,6.02810304 L21,19.9859485 C21,20.5167864 20.796877,20.9851658 20.390625,21.3911007 C19.984373,21.7970356 19.5156277,22 18.984375,22 L5.015625,22 C4.48437234,22 4.01562703,21.7970356 3.609375,21.3911007 C3.20312297,20.9851658 3,20.5167864 3,19.9859485 L3,6.02810304 C3,5.49726511 3.20312297,5.02888571 3.609375,4.62295082 C4.01562703,4.21701593 4.48437234,4.01405152 5.015625,4.01405152 L9.1875,4.01405152 C9.40625109,3.42076206 9.7656225,2.93677002 10.265625,2.56206089 C10.7656275,2.18735176 11.3437467,2 12,2 C12.6562533,2 13.2343725,2.18735176 13.734375,2.56206089 C14.2343775,2.93677002 14.5937489,3.42076206 14.8125,4.01405152 L18.984375,4.01405152 Z" id="î¡"></path>
        </g>
    </g>
</svg>