<svg xmlns="http://www.w3.org/2000/svg" xmlns:xlink="http://www.w3.org/1999/xlink" width="20" height="20" version="1.1" viewBox="0 0 20 20"><title>design</title><desc>Created with Sketch.</desc><g id="Page-1" fill="none" fill-rule="evenodd" stroke="none" stroke-width="1"><g id="design" fill="#FFF"><path d="M10,1 C5.03,1 1,5.03 1,10 C1,14.97 5.03,19 10,19 C10.83,19 11.5,18.33 11.5,17.5 C11.5,17.11 11.35,16.76 11.11,16.49 C10.88,16.23 10.73,15.88 10.73,15.5 C10.73,14.67 11.4,14 12.23,14 L14,14 C16.76,14 19,11.76 19,9 C19,4.58 14.97,1 10,1 L10,1 Z M4.5,10 C3.67,10 3,9.33 3,8.5 C3,7.67 3.67,7 4.5,7 C5.33,7 6,7.67 6,8.5 C6,9.33 5.33,10 4.5,10 L4.5,10 Z M7.5,6 C6.67,6 6,5.33 6,4.5 C6,3.67 6.67,3 7.5,3 C8.33,3 9,3.67 9,4.5 C9,5.33 8.33,6 7.5,6 L7.5,6 Z M12.5,6 C11.67,6 11,5.33 11,4.5 C11,3.67 11.67,3 12.5,3 C13.33,3 14,3.67 14,4.5 C14,5.33 13.33,6 12.5,6 L12.5,6 Z M15.5,10 C14.67,10 14,9.33 14,8.5 C14,7.67 14.67,7 15.5,7 C16.33,7 17,7.67 17,8.5 C17,9.33 16.33,10 15.5,10 L15.5,10 Z"/></g></g></svg>