<?xml version="1.0" encoding="UTF-8" standalone="no"?>
<svg width="20px" height="20px" viewBox="0 0 20 20" version="1.1" xmlns="http://www.w3.org/2000/svg" xmlns:xlink="http://www.w3.org/1999/xlink">
    <!-- Generator: Sketch 3.6.1 (26313) - http://www.bohemiancoding.com/sketch -->
    <title>qa</title>
    <desc>Created with Sketch.</desc>
    <defs></defs>
    <g id="Page-1" stroke="none" stroke-width="1" fill="none" fill-rule="evenodd">
        <g id="qa" fill="#FFFFFF">
            <path d="M18,6 L15.19,6 C14.74,5.22 14.12,4.55 13.37,4.04 L15,2.41 L13.59,1 L11.42,3.17 C10.96,3.06 10.49,3 10,3 C9.51,3 9.04,3.06 8.59,3.17 L6.41,1 L5,2.41 L6.62,4.04 C5.88,4.55 5.26,5.22 4.81,6 L2,6 L2,8 L4.09,8 C4.04,8.33 4,8.66 4,9 L4,10 L2,10 L2,12 L4,12 L4,13 C4,13.34 4.04,13.67 4.09,14 L2,14 L2,16 L4.81,16 C5.85,17.79 7.78,19 10,19 C12.22,19 14.15,17.79 15.19,16 L18,16 L18,14 L15.91,14 C15.96,13.67 16,13.34 16,13 L16,12 L18,12 L18,10 L16,10 L16,9 C16,8.66 15.96,8.33 15.91,8 L18,8 L18,6 L18,6 Z M12,14 L8,14 L8,12 L12,12 L12,14 L12,14 Z M12,10 L8,10 L8,8 L12,8 L12,10 L12,10 Z"></path>
        </g>
    </g>
</svg>