<?xml version="1.0" encoding="UTF-8" standalone="no"?>
<svg width="20px" height="20px" viewBox="0 0 20 20" version="1.1" xmlns="http://www.w3.org/2000/svg" xmlns:xlink="http://www.w3.org/1999/xlink">
    <!-- Generator: Sketch 3.6.1 (26313) - http://www.bohemiancoding.com/sketch -->
    <title>strategy</title>
    <desc>Created with Sketch.</desc>
    <defs></defs>
    <g id="Page-1" stroke="none" stroke-width="1" fill="none" fill-rule="evenodd">
        <g id="strategy" fill="#FFFFFF">
            <path d="M7,19 C7,19.55 7.45,20 8,20 L12,20 C12.55,20 13,19.55 13,19 L13,18 L7,18 L7,19 L7,19 Z M10,0 C6.14,0 3,3.14 3,7 C3,9.38 4.19,11.47 6,12.74 L6,15 C6,15.55 6.45,16 7,16 L13,16 C13.55,16 14,15.55 14,15 L14,12.74 C15.81,11.47 17,9.38 17,7 C17,3.14 13.86,0 10,0 L10,0 Z M12.85,11.1 L12,11.7 L12,14 L8,14 L8,11.7 L7.15,11.1 C5.8,10.16 5,8.63 5,7 C5,4.24 7.24,2 10,2 C12.76,2 15,4.24 15,7 C15,8.63 14.2,10.16 12.85,11.1 L12.85,11.1 Z"></path>
        </g>
    </g>
</svg>