<?xml version="1.0" encoding="UTF-8" standalone="no"?>
<svg width="20px" height="20px" viewBox="0 0 20 20" version="1.1" xmlns="http://www.w3.org/2000/svg" xmlns:xlink="http://www.w3.org/1999/xlink">
    <!-- Generator: Sketch 3.6.1 (26313) - http://www.bohemiancoding.com/sketch -->
    <title>tag</title>
    <desc>Created with Sketch.</desc>
    <defs></defs>
    <g id="Page-1" stroke="none" stroke-width="1" fill="none" fill-rule="evenodd">
        <g id="tag" stroke="#4E6975">
            <path d="M10.8075,3.435 C10.5375,3.165 10.1625,3 9.75,3 L4.5,3 C3.675,3 3,3.675 3,4.5 L3,9.75 C3,10.1625 3.165,10.5375 3.4425,10.815 L10.1925,17.565 C10.4625,17.835 10.8375,18 11.25,18 C11.6625,18 12.0375,17.835 12.3075,17.5575 L17.5575,12.3075 C17.835,12.0375 18,11.6625 18,11.25 C18,10.8375 17.8275,10.455 17.5575,10.185 L10.8075,3.435 Z M7.375,8.5 C6.7525,8.5 6.25,7.9975 6.25,7.375 C6.25,6.7525 6.7525,6.25 7.375,6.25 C7.9975,6.25 8.5,6.7525 8.5,7.375 C8.5,7.9975 7.9975,8.5 7.375,8.5 L7.375,8.5 Z" id="Shape"></path>
        </g>
    </g>
</svg>