<svg xmlns="http://www.w3.org/2000/svg" xmlns:xlink="http://www.w3.org/1999/xlink" width="20" height="20" version="1.1" viewBox="0 0 20 20"><title>tech-dark</title><desc>Created with Sketch.</desc><g id="Page-1" fill="none" fill-rule="evenodd" stroke="none" stroke-width="1"><g id="tech-dark" fill="#FFF"><path id="memory---MaterialIcons-Regular" d="M15.015625,15.015625 L15.015625,4.984375 L4.984375,4.984375 L4.984375,15.015625 L15.015625,15.015625 Z M19,9.015625 L16.984375,9.015625 L16.984375,10.984375 L19,10.984375 L19,13 L16.984375,13 L16.984375,15.015625 C16.984375,15.5468777 16.7890645,16.0078105 16.3984375,16.3984375 C16.0078105,16.7890645 15.5468777,16.984375 15.015625,16.984375 L13,16.984375 L13,19 L10.984375,19 L10.984375,16.984375 L9.015625,16.984375 L9.015625,19 L7,19 L7,16.984375 L4.984375,16.984375 C4.45312234,16.984375 3.99218945,16.7890645 3.6015625,16.3984375 C3.21093555,16.0078105 3.015625,15.5468777 3.015625,15.015625 L3.015625,13 L1,13 L1,10.984375 L3.015625,10.984375 L3.015625,9.015625 L1,9.015625 L1,7 L3.015625,7 L3.015625,4.984375 C3.015625,4.45312234 3.21093555,3.99218945 3.6015625,3.6015625 C3.99218945,3.21093555 4.45312234,3.015625 4.984375,3.015625 L7,3.015625 L7,1 L9.015625,1 L9.015625,3.015625 L10.984375,3.015625 L10.984375,1 L13,1 L13,3.015625 L15.015625,3.015625 C15.5468777,3.015625 16.0078105,3.21093555 16.3984375,3.6015625 C16.7890645,3.99218945 16.984375,4.45312234 16.984375,4.984375 L16.984375,7 L19,7 L19,9.015625 Z M10.984375,10.984375 L10.984375,9.015625 L9.015625,9.015625 L9.015625,10.984375 L10.984375,10.984375 Z M13,7 L13,13 L7,13 L7,7 L13,7 Z"/></g></g></svg>