<?xml version="1.0" encoding="UTF-8" standalone="no"?>
<svg width="40px" height="40px" viewBox="0 0 40 40" version="1.1" xmlns="http://www.w3.org/2000/svg" xmlns:xlink="http://www.w3.org/1999/xlink" xmlns:sketch="http://www.bohemiancoding.com/sketch/ns">
    <!-- Generator: Sketch 3.3.2 (12043) - http://www.bohemiancoding.com/sketch -->
    <title>tech-dark</title>
    <desc>Created with Sketch.</desc>
    <defs></defs>
    <g id="Page-1" stroke="none" stroke-width="1" fill="none" fill-rule="evenodd" sketch:type="MSPage">
        <g id="tech-dark" sketch:type="MSArtboardGroup" stroke="#393939">
            <path d="M14.8617727,27 C14.8617727,28.068 13.9954067,28.9336 12.9264616,28.9336 C11.8575165,28.9336 10.9911504,28.068 10.9911504,27 C10.9911504,25.932 11.8575165,25.0664 12.9264616,25.0664 C13.9954067,25.0664 14.8617727,25.932 14.8617727,27 L14.8617727,27 Z M22.2010619,26.9992 C22.2010619,28.0672 21.3346959,28.9328 20.2657508,28.9328 C19.1968057,28.9328 18.3304396,28.0672 18.3304396,26.9992 C18.3304396,25.9312 19.1968057,25.0656 20.2657508,25.0656 C21.3346959,25.0656 22.2010619,25.9312 22.2010619,26.9992 L22.2010619,26.9992 Z M29.5659738,26.9664 C29.5659738,28.0344 28.6996078,28.9 27.6306627,28.9 C26.5617175,28.9 25.6953515,28.0344 25.6953515,26.9664 C25.6953515,25.8984 26.5617175,25.0328 27.6306627,25.0328 C28.6996078,25.0328 29.5659738,25.8984 29.5659738,26.9664 L29.5659738,26.9664 Z M22.1674322,11.1336 C22.1674322,12.2016 21.3010662,13.0672 20.2321211,13.0672 C19.1631759,13.0672 18.2968099,12.2016 18.2968099,11.1336 C18.2968099,10.0656 19.1631759,9.2 20.2321211,9.2 C21.3010662,9.2 22.1674322,10.0656 22.1674322,11.1336 L22.1674322,11.1336 Z M20.3113912,24.8416 L20.3113912,12.8664 L20.3113912,24.8416 Z M13.6438959,25.1912 L20.399469,18.4416 L13.6438959,25.1912 Z M20.224114,18.4912 L26.9556658,25.2168 L20.224114,18.4912 Z" id="Imported-Layers" sketch:type="MSShapeGroup"></path>
        </g>
    </g>
</svg>