<?xml version="1.0" encoding="UTF-8" standalone="no"?>
<svg width="40px" height="40px" viewBox="0 0 40 40" version="1.1" xmlns="http://www.w3.org/2000/svg" xmlns:xlink="http://www.w3.org/1999/xlink" xmlns:sketch="http://www.bohemiancoding.com/sketch/ns">
    <!-- Generator: Sketch 3.3.2 (12043) - http://www.bohemiancoding.com/sketch -->
    <title>tech</title>
    <desc>Created with Sketch.</desc>
    <defs></defs>
    <g id="Page-1" stroke="none" stroke-width="1" fill="none" fill-rule="evenodd" sketch:type="MSPage">
        <g id="tech" sketch:type="MSArtboardGroup" stroke="#FFFFFF">
            <path d="M13.8617727,27 C13.8617727,28.068 12.9954067,28.9336 11.9264616,28.9336 C10.8575165,28.9336 9.99115044,28.068 9.99115044,27 C9.99115044,25.932 10.8575165,25.0664 11.9264616,25.0664 C12.9954067,25.0664 13.8617727,25.932 13.8617727,27 L13.8617727,27 Z M21.2010619,26.9992 C21.2010619,28.0672 20.3346959,28.9328 19.2657508,28.9328 C18.1968057,28.9328 17.3304396,28.0672 17.3304396,26.9992 C17.3304396,25.9312 18.1968057,25.0656 19.2657508,25.0656 C20.3346959,25.0656 21.2010619,25.9312 21.2010619,26.9992 L21.2010619,26.9992 Z M28.5659738,26.9664 C28.5659738,28.0344 27.6996078,28.9 26.6306627,28.9 C25.5617175,28.9 24.6953515,28.0344 24.6953515,26.9664 C24.6953515,25.8984 25.5617175,25.0328 26.6306627,25.0328 C27.6996078,25.0328 28.5659738,25.8984 28.5659738,26.9664 L28.5659738,26.9664 Z M21.1674322,11.1336 C21.1674322,12.2016 20.3010662,13.0672 19.2321211,13.0672 C18.1631759,13.0672 17.2968099,12.2016 17.2968099,11.1336 C17.2968099,10.0656 18.1631759,9.2 19.2321211,9.2 C20.3010662,9.2 21.1674322,10.0656 21.1674322,11.1336 L21.1674322,11.1336 Z M19.3113912,24.8416 L19.3113912,12.8664 L19.3113912,24.8416 Z M12.6438959,25.1912 L19.399469,18.4416 L12.6438959,25.1912 Z M19.224114,18.4912 L25.9556658,25.2168 L19.224114,18.4912 Z" id="Imported-Layers" sketch:type="MSShapeGroup"></path>
        </g>
    </g>
</svg>